<?xml version="1.0" standalone="no"?>
<!DOCTYPE svg PUBLIC "-//W3C//DTD SVG 20010904//EN"
 "http://www.w3.org/TR/2001/REC-SVG-20010904/DTD/svg10.dtd">
<svg version="1.0" xmlns="http://www.w3.org/2000/svg"
 width="834.000000pt" height="278.000000pt" viewBox="0 0 834.000000 278.000000"
 preserveAspectRatio="xMidYMid meet">

<g transform="translate(0.000000,278.000000) scale(0.100000,-0.100000)"
fill="#C8C8C8" stroke="none">
<path d="M1718 2566 c-108 -40 -158 -117 -158 -240 0 -105 55 -191 145 -226
45 -18 173 -15 222 5 37 15 44 15 65 1 18 -12 59 -15 202 -15 103 0 188 5 199
10 13 8 28 7 49 -2 17 -7 66 -13 108 -13 61 0 85 5 114 22 l38 22 25 -20 c21
-16 41 -20 103 -20 93 0 119 16 129 75 5 34 11 40 40 48 27 7 36 5 43 -7 44
-78 118 -118 222 -119 118 -1 206 56 235 152 16 54 14 155 -4 199 -48 114
-183 169 -319 128 -27 -8 -56 -22 -65 -31 -17 -14 -22 -13 -62 10 l-44 25
-325 -1 c-194 0 -329 -4 -336 -10 -7 -6 -21 -6 -38 1 -15 5 -89 10 -163 10
-110 0 -140 -3 -154 -16 -16 -14 -20 -14 -51 2 -44 23 -170 29 -220 10z m195
-89 c23 -15 54 -63 45 -72 -2 -3 -25 -9 -50 -14 -39 -7 -48 -5 -62 10 -21 25
-51 24 -76 -1 -25 -25 -28 -111 -4 -134 16 -16 59 -21 88 -10 26 10 18 24 -14
24 -28 0 -30 2 -30 40 l0 41 78 -3 77 -3 0 -69 0 -69 -44 -24 c-62 -32 -164
-33 -212 0 -108 72 -86 257 36 297 40 13 140 5 168 -13z m1445 -1 c43 -22 64
-61 69 -130 8 -113 -50 -176 -162 -176 -73 0 -120 25 -147 80 -32 63 -17 174
28 211 47 39 151 47 212 15z m-1061 -10 c39 -34 39 -98 0 -132 -15 -12 -23
-25 -18 -29 11 -6 57 -87 66 -115 6 -18 2 -20 -53 -20 l-59 0 -19 41 c-21 48
-51 89 -65 89 -5 0 -9 -29 -9 -65 l0 -65 -50 0 -50 0 0 160 0 160 114 0 c107
0 117 -2 143 -24z m203 -84 c0 -113 6 -132 45 -132 39 0 45 19 45 132 l0 108
55 0 55 0 0 -105 c0 -173 -31 -215 -156 -215 -71 0 -76 2 -112 34 l-37 34 -3
126 -4 126 56 0 56 0 0 -108z m513 88 c49 -39 42 -137 -14 -165 -15 -8 -48
-15 -74 -15 l-45 0 0 -60 0 -60 -55 0 -55 0 0 160 0 160 109 0 c93 0 112 -3
134 -20z"/>
<path d="M3220 2391 c-16 -30 -12 -107 6 -125 20 -20 58 -20 78 0 18 18 22 95
6 125 -7 13 -21 19 -45 19 -24 0 -38 -6 -45 -19z"/>
<path d="M2140 2395 c0 -24 3 -26 38 -23 29 2 37 7 37 23 0 16 -8 21 -37 23
-35 3 -38 1 -38 -23z"/>
<path d="M2880 2390 c0 -28 3 -31 28 -28 21 2 27 8 27 28 0 20 -6 26 -27 28
-25 3 -28 0 -28 -28z"/>
<path d="M3718 2374 c-19 -6 -19 -7 -69 -206 l-34 -138 -1136 0 c-1123 0
-1136 0 -1199 -21 -125 -41 -204 -110 -255 -222 -14 -30 -46 -146 -71 -258
-25 -112 -74 -331 -110 -486 -72 -318 -76 -364 -40 -471 43 -125 104 -194 206
-233 136 -51 -1 -49 2748 -48 1406 0 2697 4 2867 8 287 7 314 9 367 30 64 25
129 88 158 154 17 38 400 1510 400 1536 0 8 -69 11 -238 11 -131 0 -373 3
-538 7 l-299 6 -34 70 c-19 39 -57 93 -85 121 -90 92 -169 116 -378 116 l-147
0 -10 -37 c-47 -180 -71 -266 -75 -270 -2 -3 -131 -6 -286 -6 l-281 -2 -22 66
c-61 181 -205 259 -507 276 l-118 6 -17 -59 c-19 -65 -40 -164 -50 -236 l-6
-48 -63 0 -63 0 -6 39 c-7 57 -49 141 -88 179 -46 46 -115 79 -196 96 -71 15
-295 28 -325 20z m332 -110 c103 -34 175 -133 194 -266 l7 -48 148 0 148 0 6
68 c4 37 17 108 29 157 l23 90 66 3 c36 2 99 -4 139 -12 156 -33 224 -95 294
-269 l15 -37 348 2 348 3 44 156 43 157 57 6 c31 3 85 2 121 -3 150 -20 235
-89 291 -237 l32 -84 514 0 c282 0 513 -2 513 -4 0 -2 -34 -145 -75 -317 -41
-173 -98 -411 -126 -529 -89 -374 -137 -557 -158 -598 -25 -49 -78 -96 -128
-113 -32 -12 -520 -14 -2918 -14 l-2880 0 -56 23 c-65 26 -140 87 -175 144
-35 55 -58 151 -50 214 5 42 82 366 213 894 37 150 103 238 211 282 l57 23
1171 3 1172 2 21 78 c11 42 31 117 43 166 l23 89 110 -6 c66 -3 132 -12 165
-23z"/>
<path d="M4640 2204 c-26 -67 -42 -163 -38 -231 l3 -73 -217 0 -218 0 0 53 c0
172 -81 253 -266 264 l-92 6 -37 -160 -38 -160 -585 -6 c-322 -4 -862 -7
-1201 -7 l-616 0 -52 -24 c-59 -28 -102 -80 -132 -161 -11 -29 -56 -212 -101
-406 -45 -195 -90 -391 -101 -437 -46 -201 -6 -323 134 -399 30 -17 177 -18
2927 -18 l2895 0 46 21 c69 32 88 74 149 324 29 118 101 414 161 658 60 243
109 447 109 452 0 6 -189 10 -509 10 l-508 0 -6 33 c-12 73 -50 151 -97 197
-59 60 -126 84 -235 84 l-80 1 -28 -110 c-16 -60 -36 -134 -44 -163 l-14 -52
-386 2 -386 3 -13 52 c-45 176 -146 261 -325 271 l-88 5 -11 -29z m218 -121
c37 -27 62 -80 62 -130 l0 -43 -65 0 c-57 0 -68 3 -97 29 -30 26 -33 34 -36
101 l-4 73 56 -5 c35 -3 67 -12 84 -25z m-899 -4 c37 -8 58 -19 77 -42 26 -31
26 -34 20 -122 -3 -49 -9 -105 -12 -122 l-6 -33 171 0 c191 0 218 -7 246 -61
38 -72 33 -103 -65 -444 -50 -176 -93 -327 -96 -336 -4 -14 -11 -15 -45 -8
-135 31 -147 79 -80 319 57 207 81 298 81 309 0 14 -171 20 -205 6 -58 -24
-60 -28 -155 -380 -18 -66 -41 -151 -52 -189 l-19 -68 -47 7 c-77 10 -122 55
-122 122 0 18 54 252 120 520 66 268 122 498 125 511 3 12 7 22 10 22 2 0 27
-5 54 -11z m2187 -25 c64 -31 76 -80 47 -209 -9 -41 -13 -78 -10 -81 3 -4 25
-9 49 -11 74 -9 128 -69 128 -144 l0 -49 -118 0 -119 0 -51 -194 c-29 -106
-52 -207 -52 -224 0 -42 22 -52 114 -52 87 0 84 5 65 -107 l-11 -63 -167 0
c-276 0 -279 8 -178 395 l63 240 -43 5 c-68 9 -79 26 -63 102 21 106 13 98 90
98 l68 0 11 33 c5 17 24 84 41 147 18 63 34 118 37 123 7 13 64 8 99 -9z
m-3874 -302 c15 -10 82 -98 149 -195 67 -98 124 -175 127 -172 3 3 26 87 52
188 l46 182 39 -3 c21 -2 51 -10 66 -17 26 -14 69 -85 69 -116 1 -8 -39 -170
-87 -361 l-87 -348 -42 0 c-58 0 -86 26 -185 173 -46 67 -95 138 -109 159
l-26 36 -39 -151 c-21 -84 -42 -167 -47 -185 l-9 -33 -52 7 c-98 12 -137 45
-137 116 0 29 165 711 176 730 9 14 68 8 96 -10z m1339 -18 c35 -36 40 -95 17
-216 l-21 -108 -100 0 -99 0 7 33 c3 17 9 49 12 70 l6 37 -116 0 c-112 0 -117
-1 -132 -24 -14 -21 -105 -360 -105 -391 0 -8 7 -21 16 -29 13 -13 46 -16 210
-16 l194 0 -1 -22 c0 -13 -8 -50 -17 -83 l-17 -60 -279 -3 c-309 -3 -315 -2
-341 62 -14 34 -11 59 35 251 10 44 35 152 55 240 44 194 50 211 89 253 l31
33 267 -3 c258 -3 268 -4 289 -24z m1127 11 c69 -21 85 -46 84 -131 -1 -35 -6
-81 -12 -102 -5 -20 -28 -113 -50 -207 -22 -93 -52 -218 -66 -277 l-26 -108
-44 0 c-56 0 -109 22 -125 51 -22 41 -12 97 75 440 47 185 86 340 86 343 0 10
23 7 78 -9z m2462 1 c0 -24 -289 -1100 -304 -1133 -21 -43 -64 -64 -152 -70
-63 -5 -74 -4 -74 10 0 13 64 266 86 340 5 16 -5 17 -120 17 l-125 0 -15 -52
c-8 -29 -25 -89 -37 -133 -25 -95 -42 -131 -68 -145 -13 -7 -780 -10 -2378
-10 l-2359 0 -44 23 c-71 35 -77 58 -50 194 12 63 21 116 18 118 -2 3 -57 2
-121 -2 l-117 -6 -10 -36 c-5 -20 -24 -91 -41 -158 -36 -140 -35 -139 -119
-95 -36 18 -59 38 -72 62 -22 42 -23 118 -3 186 8 28 53 216 100 419 91 394
98 413 169 456 29 18 53 19 334 19 177 0 302 -4 302 -9 0 -5 -7 -36 -15 -68
-57 -230 -195 -835 -195 -856 0 -16 8 -31 19 -37 14 -7 718 -9 2232 -8 l2212
3 112 402 c62 221 123 423 135 448 26 54 69 89 141 115 48 17 83 19 307 20
208 0 252 -2 252 -14z m-1578 -8 c9 -7 25 -28 35 -45 l20 -33 -39 -192 c-23
-114 -46 -203 -57 -218 -38 -54 -68 -60 -288 -60 l-203 0 0 -38 c0 -21 5 -43
12 -50 9 -9 73 -12 226 -12 194 0 214 -2 208 -16 -4 -9 -13 -47 -22 -85 l-16
-69 -303 0 c-239 0 -305 3 -314 13 -6 8 -15 36 -22 63 -10 46 -6 68 61 339 83
339 86 350 123 387 l29 28 267 0 c198 0 271 -3 283 -12z"/>
<path d="M1595 1551 c-46 -12 -93 -39 -109 -64 -8 -12 -33 -98 -55 -192 -23
-93 -44 -178 -47 -187 -5 -17 5 -18 118 -18 l123 0 53 213 c28 118 52 220 52
229 0 25 -70 34 -135 19z"/>
<path d="M6710 1524 c-44 -37 -53 -59 -103 -252 l-45 -172 132 0 132 0 59 213
c32 116 60 218 63 225 3 9 -21 12 -101 12 -99 0 -107 -2 -137 -26z"/>
<path d="M5223 1545 c-12 -8 -30 -42 -41 -75 l-21 -60 123 0 c143 0 149 3 170
94 l13 56 -111 0 c-83 0 -117 -4 -133 -15z"/>
</g>
</svg>
